<?xml version="1.0" encoding="utf-8"?><svg id="suitedash-home" xmlns="http://www.w3.org/2000/svg" xmlns:xlink="http://www.w3.org/1999/xlink" viewBox="0 0 672 500">
	<style>
		@-webkit-keyframes steam {
			from {
				-webkit-transform: translate(0px, 0px);
				transform: translate(0px, 0px);
			}
			to {
				-webkit-transform: translate(16.53px, -78.62px);
				transform: translate(16.53px, -78.62px);	
			}
		}
		
		@keyframes steam {
			from {
				-webkit-transform: translate(0px, 0px);
				transform: translate(0px, 0px);
			}
			to {
				-webkit-transform: translate(16.53px, -78.62px);
				transform: translate(16.53px, -78.62px);	
			}
		}
		
		@-webkit-keyframes arrow-mask {
			0% {
				stroke-dasharray: 307.23748779296875;
				stroke-dashoffset: 307.23748779296875;
				opacity: 1;
			}
			60%,80% {
				stroke-dasharray: 307.23748779296875;
				stroke-dashoffset: 0;
				opacity: 1;
			}
			90%, 100% {
				stroke-dasharray: 307.23748779296875;
				stroke-dashoffset: 0;
				opacity: 0;
			}
		}
		
		@keyframes arrow-mask {
			0% {
				stroke-dasharray: 307.23748779296875;
				stroke-dashoffset: 307.23748779296875;
				opacity: 1;
			}
			60%,80% {
				stroke-dasharray: 307.23748779296875;
				stroke-dashoffset: 0;
				opacity: 1;
			}
			90%, 100% {
				stroke-dasharray: 307.23748779296875;
				stroke-dashoffset: 0;
				opacity: 0;
			}
		}
		
		@-webkit-keyframes head-rotate {
			0%, 40%, 80%, 100% {
				-webkit-transform: none;
				transform: none;
			}
			20%, 30%, 60% {
				-webkit-transform: rotate(10deg);
				transform: rotate(10deg);
			}
		}
		
		@keyframes head-rotate {
			0%, 40%, 80%, 100% {
				-webkit-transform: none;
				transform: none;
			}
			20%, 30%, 60% {
				-webkit-transform: rotate(10deg);
				transform: rotate(10deg);
			}
		}
		
		@-webkit-keyframes left-arm {
			0%, 40%, 45%, 80%, 100% {
				-webkit-transform: none;
				transform: none;
			}
			10%, 25%, 65%, 70% {
				-webkit-transform: rotate(-5deg);
				transform: rotate(-5deg);
			}
		}
		
		@keyframes left-arm {
			0%, 40%, 45%, 80%, 100% {
				-webkit-transform: none;
				transform: none;
			}
			10%, 25%, 65%, 70% {
				-webkit-transform: rotate(-5deg);
				transform: rotate(-5deg);
			}
		}
		
		@-webkit-keyframes left-forearm {
			0%, 40%, 45%, 80%, 100% {
				-webkit-transform: none;
				transform: none;
			}
			10%, 25%, 65%, 70% {
				-webkit-transform: rotate(5deg);
				transform: rotate(5deg);
			}
		}
		
		@keyframes left-forearm {
			0%, 40%, 45%, 80%, 100% {
				-webkit-transform: none;
				transform: none;
			}
			10%, 25%, 65%, 70% {
				-webkit-transform: rotate(5deg);
				transform: rotate(5deg);
			}
		}
		
		@-webkit-keyframes right-arm {
			0%, 40%, 45%, 80%, 100% {
				-webkit-transform: none;
				transform: none;
			}
			10%, 25%, 65%, 70% {
				-webkit-transform: rotate(-8deg);
				transform: rotate(-8deg);
			}
		}
		
		@keyframes right-arm {
			0%, 40%, 45%, 80%, 100% {
				-webkit-transform: none;
				transform: none;
			}
			10%, 25%, 65%, 70% {
				-webkit-transform: rotate(-8deg);
				transform: rotate(-8deg);
			}
		}
		
		@-webkit-keyframes right-forearm {
			0%, 40%, 45%, 80%, 100% {
				-webkit-transform: none;
				transform: none;
			}
			10%, 25%, 65%, 70% {
				-webkit-transform: rotate(8deg);
				transform: rotate(8deg);
			}
		}
		
		@keyframes right-forearm {
			0%, 40%, 45%, 80%, 100% {
				-webkit-transform: none;
				transform: none;
			}
			10%, 25%, 65%, 70% {
				-webkit-transform: rotate(8deg);
				transform: rotate(8deg);
			}
		}
		
		@-webkit-keyframes graph-bar-1 {
			0%, 100% {
				-webkit-transform: none;
				transform: none;
			}
			25% {
				-webkit-transform: scaleY(1.5);
				transform: scaleY(1.5);
			}
			50% {
				-webkit-transform: scaleY(.9);
				transform: scaleY(.9);
			}
			75% {
				-webkit-transform: scaleY(1.15);
				transform: scaleY(1.15);	
			}
		}
		
		@keyframes graph-bar-1 {
			0%, 100% {
				-webkit-transform: none;
				transform: none;
			}
			25% {
				-webkit-transform: scaleY(1.5);
				transform: scaleY(1.5);
			}
			50% {
				-webkit-transform: scaleY(.9);
				transform: scaleY(.9);
			}
			75% {
				-webkit-transform: scaleY(1.15);
				transform: scaleY(1.15);	
			}
		}
		
		@-webkit-keyframes graph-bar-2 {
			0%, 100% {
				-webkit-transform: none;
				transform: none;
			}
			25% {
				-webkit-transform: scaleY(3);
				transform: scaleY(3);
			}
			50% {
				-webkit-transform: scaleY(1.5);
				transform: scaleY(1.5);
			}
			75% {
				-webkit-transform: scaleY(2);
				transform: scaleY(2);	
			}
		}
		
		@keyframes graph-bar-2 {
			0%, 100% {
				-webkit-transform: none;
				transform: none;
			}
			25% {
				-webkit-transform: scaleY(3);
				transform: scaleY(3);
			}
			50% {
				-webkit-transform: scaleY(1.5);
				transform: scaleY(1.5);
			}
			75% {
				-webkit-transform: scaleY(2);
				transform: scaleY(2);	
			}
		}
		
		@-webkit-keyframes doodle-leftright {
			from {
				-webkit-transform: translateX(-2px);
				transform: translateX(-2px);
			}
			to {
				-webkit-transform: translateX(2px);
				transform: translateX(2px);
			}
		}
		
		@keyframes doodle-leftright {
			from {
				-webkit-transform: translateX(-2px);
				transform: translateX(-2px);
			}
			to {
				-webkit-transform: translateX(2px);
				transform: translateX(2px);
			}
		}
		
		@-webkit-keyframes doodle-updown {
			from {
				-webkit-transform: translateY(-2px);
				transform: translateY(-2px);
			}
			to {
				-webkit-transform: translateY(2px);
				transform: translateY(2px);
			}
		}
		
		@keyframes doodle-updown {
			from {
				-webkit-transform: translateY(-2px);
				transform: translateY(-2px);
			}
			to {
				-webkit-transform: translateY(2px);
				transform: translateY(2px);
			}
		}
		
		
		@-webkit-keyframes chatbox-top {
			0% {
				-webkit-transform: rotate(-90deg) scale(0);
				transform: rotate(-90deg) scale(0);
				opacity: 0;
			}
			20%, 75% {
				-webkit-transform: none;
				transform: none;
				opacity: 1;
			}
			95%, 100% {
				opacity: 0;
			}
		}
		
		
		@keyframes chatbox-top {
			0% {
				-webkit-transform: rotate(-90deg) scale(0);
				transform: rotate(-90deg) scale(0);
				opacity: 0;
			}
			20%, 75% {
				-webkit-transform: none;
				transform: none;
				opacity: 1;
			}
			95%, 100% {
				opacity: 0;
			}
		}
		
		@-webkit-keyframes chatbox-bottom {
			0% {
				-webkit-transform: rotate(90deg) scale(0);
				transform: rotate(90deg) scale(0);
				opacity: 0;
			}
			20%, 75% {
				-webkit-transform: none;
				transform: none;
				opacity: 1;
			}
			95%, 100% {
				opacity: 0;
			}
		}
		
		@keyframes chatbox-bottom {
			0% {
				-webkit-transform: rotate(90deg) scale(0);
				transform: rotate(90deg) scale(0);
				opacity: 0;
			}
			20%, 75% {
				-webkit-transform: none;
				transform: none;
				opacity: 1;
			}
			95%, 100% {
				opacity: 0;
			}
		}
		
		@-webkit-keyframes tail-wiggle {
			5%, 25%, 45%, 65% {
				-webkit-transform: rotate(-5deg);
				transform: rotate(-5deg);
			}
			15%, 35%, 55%, 75% {
				-webkit-transform: rotate(5deg);
				transform: rotate(5deg);
			}
			80%, 100% {
				-webkit-transform: none;
				transform: none;
			}
		}
		
		@keyframes tail-wiggle {
			5%, 25%, 45%, 65% {
				-webkit-transform: rotate(-5deg);
				transform: rotate(-5deg);
			}
			15%, 35%, 55%, 75% {
				-webkit-transform: rotate(5deg);
				transform: rotate(5deg);
			}
			80%, 100% {
				-webkit-transform: none;
				transform: none;
			}
		}
		
		#suitedash-home #steam {
			-webkit-animation: steam 6s linear both infinite;
			animation: steam 6s linear both infinite;
		}
		
		#suitedash-home #arrow-mask {
			-webkit-animation: arrow-mask 5s ease-in-out both infinite;
			animation: arrow-mask 5s ease-in-out both infinite;
		}
		
		
		#suitedash-home #back-hair, #suitedash-home #lady-head {
			-webkit-transform-origin: 351.25px 245.333px;
			-ms-transform-origin: 351.25px 245.333px;
			transform-origin: 351.25px 245.333px;
			-webkit-animation: head-rotate 8s ease-in-out both infinite;
			animation: head-rotate 8s ease-in-out both infinite;
		}
		
		#suitedash-home #left-arm {
			-webkit-transform-origin: 368.5px 262.563px;
			-ms-transform-origin: 368.5px 262.563px;
			transform-origin: 368.5px 262.563px;
			-webkit-animation: left-arm 8s ease-in-out both infinite;
			animation: left-arm 8s ease-in-out both infinite;
		}
		#suitedash-home #left-forearm {
			-webkit-transform-origin: 388.5px 329.188px;
			-ms-transform-origin: 388.5px 329.188px;
			transform-origin: 388.5px 329.188px;
			-webkit-animation: left-forearm 8s ease-in-out both infinite;
			animation: left-forearm 8s ease-in-out both infinite;
		}
		
		#suitedash-home #right-arm {
			-webkit-transform-origin: 325.333px 271px;
			-ms-transform-origin: 325.333px 271px;
			transform-origin: 325.333px 271px;
			-webkit-animation: right-arm 8s 2s ease-in-out both infinite;
			animation: right-arm 8s 2s ease-in-out both infinite;
		}
		#suitedash-home #right-forearm {
			-webkit-transform-origin: 319.303px 324.975px;
			-ms-transform-origin: 319.303px 324.975px;
			transform-origin: 319.303px 324.975px;
			-webkit-animation: right-forearm 8s 2s ease-in-out both infinite;
			animation: right-forearm 8s 2s ease-in-out both infinite;
		}
		
		#suitedash-home #bar-5 {
			-webkit-animation: graph-bar-1 2s ease-in-out both infinite;
			animation: graph-bar-1 2s ease-in-out both infinite;
		}
		#suitedash-home #bar-4 {
			-webkit-animation: graph-bar-2 3s ease-in-out both infinite;
			animation: graph-bar-2 3s ease-in-out both infinite;
		}
		#suitedash-home #bar-3 {
			-webkit-animation: graph-bar-1 1.5s ease-in-out both infinite;
			animation: graph-bar-1 1.5s ease-in-out both infinite;
		}
		#suitedash-home #bar-2 {
			-webkit-animation: graph-bar-2 2s ease-in-out both infinite;
			animation: graph-bar-2 2s ease-in-out both infinite;
		}
		#suitedash-home #bar-1 {
			-webkit-animation: graph-bar-1 2.5s ease-in-out both infinite;
			animation: graph-bar-1 2.5s ease-in-out both infinite;
		}
		
		#suitedash-home #chat-box-top {
			-webkit-transform-origin: 560.19px 45.84px;
			-ms-transform-origin: 560.19px 45.84px;
			transform-origin: 560.19px 45.84px;
			-webkit-animation: chatbox-top 4s cubic-bezier(0.175, 0.885, 0.32, 1.275) both infinite;
			animation: chatbox-top 4s cubic-bezier(0.175, 0.885, 0.32, 1.275) both infinite;
		}
		
		#suitedash-home #chat-box-bottom {
			-webkit-transform-origin: 497.21px 235.21px;
			-ms-transform-origin: 497.21px 235.21px;
			transform-origin: 497.21px 235.21px;
			-webkit-animation: chatbox-bottom 4s -1s cubic-bezier(0.175, 0.885, 0.32, 1.275) both infinite;
			animation: chatbox-bottom 4s -1s cubic-bezier(0.175, 0.885, 0.32, 1.275) both infinite;
		}
		
		#suitedash-home #dog-tail {
			-webkit-transform-origin: 122.083px 453.26px;
			-ms-transform-origin: 122.083px 453.26px;
			transform-origin: 122.083px 453.26px;
			-webkit-animation: tail-wiggle 3s ease-in-out both infinite;
			animation: tail-wiggle 3s ease-in-out both infinite;
		}
	</style>
	<defs>
		<mask id="home-mask" x="259.38" y="104.58" width="145.79" height="103.43" maskUnits="userSpaceOnUse">
			<path id="arrow-mask" d="M263.88,203.51s3.63-1.64,6.75-8.89,8.75-20.25,8.75-20.25l9.63,9.88,18.13-32,15.63,23.29,9.17-17.67,14.25-10.17,23.52,7.71,21-30.85L384,117.08l16.25,10.42-9.42-14,9.83,2-.75-6.42" fill="none" stroke="#fff" stroke-linecap="round" stroke-linejoin="round" stroke-width="9" stroke-dashoffset="274.2336120605469" stroke-dasharray="274.2336120605469"></path>
		</mask>
		<mask id="home-mask-2" x="316.69" y="279.46" width="52.03" height="117.93" maskUnits="userSpaceOnUse">
			<rect id="steam-mask" x="321.48" y="279.46" width="47.24" height="39.54" fill="#fff"></rect>
		</mask>
		<linearGradient id="home-linear-gradient" x1="206.9" y1="474.99" x2="148.03" y2="420.68" gradientTransform="matrix(1, 0, 0, -1, 0, 500)" gradientUnits="userSpaceOnUse">
			<stop offset="0.05" stop-color="#876daf"></stop>
			<stop offset="1" stop-color="#48c6e9"></stop>
		</linearGradient>
		<linearGradient id="home-linear-gradient-2" x1="215.34" y1="466.39" x2="156.13" y2="411.76" xlink:href="#home-linear-gradient"></linearGradient>
		<linearGradient id="home-linear-gradient-3" x1="220.08" y1="462.04" x2="160.43" y2="407.01" xlink:href="#home-linear-gradient"></linearGradient>
		<linearGradient id="home-linear-gradient-4" x1="227.86" y1="453.06" x2="168.69" y2="398.48" xlink:href="#home-linear-gradient"></linearGradient>
		<linearGradient id="home-linear-gradient-5" x1="231.94" y1="449.14" x2="172.29" y2="394.11" xlink:href="#home-linear-gradient"></linearGradient>
	</defs>
	<ellipse cx="336.5" cy="247" rx="327" ry="241.5" fill="#d9f2ff"></ellipse>
	<path d="M332.82,487.5C152.6,487.5,6.5,379.6,6.5,246.5S152.6,5.5,332.82,5.5C343.8,5.5,341.8,487.5,332.82,487.5Z" fill="#b7dced"></path>
	<rect x="260.94" y="94.5" width="78.02" height="115.43" fill="#505f79"></rect>
	<rect x="338.96" y="94.5" width="78.02" height="115.43" fill="#7185a3"></rect>
	<rect x="267.35" y="100.91" width="71.61" height="102.6" fill="#fdfffe"></rect>
	<rect x="338.96" y="100.91" width="71.61" height="102.6" fill="#ededed"></rect>
	<g mask="url(#home-mask)">
		<g>
			<path d="M401.22,108.78,399.62,131l-6.34-4.32-20.67,30.57a3.48,3.48,0,0,1-3.91,1.38l-22.22-7.09L339,156.75v-8.4l4.93-3.44a3.51,3.51,0,0,1,3-.48l21.39,6.83,19.24-28.46-6.33-4.31Z" fill="#f04646"></path>
			<path d="M335,159.54l-8.74,18.25a3.57,3.57,0,0,1-3.08,1.94,3.46,3.46,0,0,1-2.92-1.57l-12.84-19.85-15,28.19a3.48,3.48,0,0,1-2.52,1.72h-.49a3.45,3.45,0,0,1-2.49-1.06l-6.68-6.95-8.39,19.3a3.77,3.77,0,0,1-.37.65l-4,5.57V192.42L276,172.78a3.39,3.39,0,0,1,2.57-2l.59-.06a3.47,3.47,0,0,1,2.49,1.06l7,7.26L304,149.89a3.51,3.51,0,0,1,3-1.82,3.42,3.42,0,0,1,2.88,1.57l12.7,19.6,6.43-13.41a3.53,3.53,0,0,1,1.18-1.43l8.69-6.05v8.4Z" fill="#fb6767"></path>
		</g>
	</g>
	<ellipse cx="407.5" cy="469.74" rx="202" ry="28.24" fill="#3e76a1" opacity="0.92" style="isolation: isolate"></ellipse>
	<ellipse cx="408" cy="469.66" rx="192.5" ry="23.84" fill="#3e76a1" opacity="0.92" style="isolation: isolate"></ellipse>
	<ellipse cx="608.5" cy="152.48" rx="59" ry="8.02" fill="#3e76a1" opacity="0.46" style="isolation: isolate"></ellipse>
	<ellipse cx="608.5" cy="154.48" rx="59" ry="8.02" fill="#3e76a1" opacity="0.46" style="isolation: isolate"></ellipse>
	<ellipse cx="82" cy="133.19" rx="54.5" ry="9.31" fill="#3e76a1" opacity="0.46" style="isolation: isolate"></ellipse>
	<rect x="365.09" y="415.64" width="6.63" height="39.99" fill="#334866"></rect>
	<path d="M368.41,473.44h0a3.32,3.32,0,0,1-3.32-3.31v-14.5h6.64v14.5A3.32,3.32,0,0,1,368.41,473.44Z" fill="#334866"></path>
	<path d="M401.78,472.38h0a3.32,3.32,0,0,1-4.69.18L366.6,451.5l4.5-4.87,30.5,21.06A3.32,3.32,0,0,1,401.78,472.38Z" fill="#334866"></path>
	<path d="M335,472.38h0a3.32,3.32,0,0,0,4.69.18l30.49-21.06-4.5-4.87-30.5,21.06A3.33,3.33,0,0,0,335,472.38Z" fill="#334866"></path>
	<path d="M408.26,398.53h-79.7a8,8,0,0,1-8-8h0a8,8,0,0,1,8-8h79.7a8,8,0,0,1,8,8h0A8,8,0,0,1,408.26,398.53Z" fill="#3c70b6"></path>
	<path d="M342.22,252.6l-21,74.76a8,8,0,0,1-6.85,9h0a8,8,0,0,1-9-6.85l-8.91-65.92a8,8,0,0,1,6.85-9h0C307.71,254,341.63,248.23,342.22,252.6Z" fill="#3c70b6"></path>
	<path d="M374.88,343.08s51.86,5.77,67,8.27c13.44,2.22,18,8.86,12.49,20.69-5.85,12.57-46.69,80.41-46.69,80.41H394.5s6.1-39.07,14.16-53.92a92.41,92.41,0,0,1,17.58-23.27h-63L344.56,345.7Z" fill="#0c2344"></path>
	<path d="M325.18,346.46c-1.19,5.78-5.68,20.29.18,30.61,9.71,17.15,83.3,10.55,100.72,11.36,0,0,1.25,14.38,5.62,25.3,3.92,9.83,22.67,38.72,22.67,38.72h13.11s-19.82-77.5-25.6-85.66-78.65-21.09-78.65-21.09Z" fill="#204265"></path>
	<g id="left-arm">
		<path id="left-forearm" d="M381.32,333.6c-3.29-3-3.15-14,14.93-10,0,0,29.74,3,39.56,5.19s8.8,3.49,7.92,4.76C433.17,338.83,385.35,336.3,381.32,333.6Z" fill="#f26f53"></path>
		<path d="M380.78,331.64l-13.6-48.94s-10.8-24.33-2.18-25.35c3.13-.23,11.75.52,16.78,16,4.45,15.12,14.47,50.35,14.47,50.35,2.25,7.6-8.36,12.43-14.93,10" fill="#f26f53"></path>
	</g>
	<path id="back-hair" d="M363.23,194.53c.28-1.45-13.47-2.36-14.92-2.17A33.21,33.21,0,0,0,334,198c-8,5.68-10.46,16.59-8.66,26.41.6,3.3,1.86,6.68.94,9.9-1.88,6.63-9.2,7.44-12.33,15.71a22.31,22.31,0,0,0-.74,12.23c.82,4,3.3,7.91,7.09,9.51a13.78,13.78,0,0,0,5.66,1,22.68,22.68,0,0,0,14.71-5.82c4.8-4.36,6.13-10.25,8.62-15.89a83.41,83.41,0,0,0,3.62-11.5c2.65-9.61,4.87-19.34,7-29.08C361,205.16,362.17,199.85,363.23,194.53Z" fill="#102146"></path>
	<path d="M336.52,255.4s-15.7,5.8-18.12,11.62,9.52,42.35,9.52,54.48a138.66,138.66,0,0,1-2.74,25s38.11,1.86,49.7-3.38c6.34-19.62,7.93-41.89,6.1-56.92-1.94-16-16-28.79-16-28.79l-5.35-1.65Z" fill="#fff"></path>
	<rect x="289.33" y="333.62" width="276.46" height="7.61" fill="#05b0bc"></rect>
	<rect x="282.55" y="333.62" width="61.43" height="7.61" fill="#48c1c5"></rect>
	<polygon points="309.94 473.44 304.26 473.44 302.23 341.23 311.98 341.23 309.94 473.44" fill="#05b0bc"></polygon>
	<polygon points="311.84 350.01 311.98 341.23 302.23 341.23 302.37 350.01 311.84 350.01" fill="#008f92"></polygon>
	<polygon points="502.74 473.44 497.07 473.44 495.03 341.23 504.78 341.23 502.74 473.44" fill="#05b0bc"></polygon>
	<polygon points="504.64 350.01 504.78 341.23 495.03 341.23 495.17 350.01 504.64 350.01" fill="#008f92"></polygon>
	<polygon points="556.33 473.44 550.65 473.44 548.61 341.23 558.36 341.23 556.33 473.44" fill="#05b0bc"></polygon>
	<polygon points="558.23 350.01 558.36 341.23 548.61 341.23 548.75 350.01 558.23 350.01" fill="#008f92"></polygon>
	<path d="M535.86,241.79h-98.4v77h98.4s11.53-6.81,11.53-38.49S535.86,241.79,535.86,241.79Z" fill="#505f79"></path>
	<path d="M437.46,241.79v77s14.3-6.81,14.3-38.49S437.46,241.79,437.46,241.79Z" fill="#9cb0c8"></path>
	<path d="M521.27,333.62s-4-26.66-13.07-38.15H491.45s4.79,22.24,1.92,38.15Z" fill="#9cb0c8"></path>
	<path d="M475.31,330h32.37v3.57H472.74v-1.78C472.74,330.85,473.89,330,475.31,330Z" fill="#9cb0c8"></path>
	<path d="M360.18,246.59l-.53,9.14s6.67,9,1.85,12.41S347,269.4,341.77,262.4l-5.25-7a9.15,9.15,0,0,0,6.46-3.73c1.9-2.75.29-14.16.29-14.16,0-4.76,16.91,1.45,16.91,9.07" fill="#f26f53"></path>
	<path d="M360.18,246.58c-4.78-.21-10.36-5.23-11.41-7.34s-2.76,2,2.1,6.8S360,250.6,360,250.6Z" fill="#102146"></path>
	<g id="lady-head">
		<path d="M360.18,246.59s8.15,1.17,12.25-5c5.29-7.95,5.54-20.48,1.77-36.59,0,0-5.38-9.45-21.69-3.2s-12.63,22.41-12.63,22.41c-5-1.84-7.14,5.53-5.2,9.72,3.41,7.35,8.59,3.58,8.59,3.58,5.35-2,4,.81,7.46,4.14,2.7,2.63,5.83,4.93,9.45,4.93" fill="#f26f53"></path>
		<path d="M360,201.53s-8.62.37-8.92,5.49-1.64,16.45-11.15,17.19c0,0-5.19-16.27,2.11-24.47,6.07-6.81,13-4.63,13-4.63s11-7.47,18.89,1.4,2.38,20,2.38,20C376,214.43,373,199.72,360,201.53Z" fill="#102146"></path>
		<path d="M339.88,224.21s.29,8.2,2.18,7.87c3.51-.62,2.29-9.25,2.29-9.25Z" fill="#102146"></path>
	</g>
	<g id="right-arm">
		<path id="right-forearm" d="M308.89,326.66c-.28,4.45,3.35,7,19,7h70.3s1.09-3.49-11.48-6c-11.22-2.2-21.93-4.21-21.93-4.21l-34.53-6.53C319.88,315.38,309.45,317.65,308.89,326.66Z" fill="#f26f53"></path>
		<path d="M330.25,316.92s2.12-22,3.69-34.22-.33-18-6-18.7c-9.32-1.26-11.57,3.91-13.28,16.33s-5.23,41.9-5.75,46.33C308.17,332.83,327.89,339.79,330.25,316.92Z" fill="#f26f53"></path>
	</g>
	<g>
		<path d="M359.22,323.28a2.82,2.82,0,0,0-.81-2.09c-1-1-2.55-1.13-4.24-1.15v-1.32H328.94c0,8.23,2,14.9,12.63,14.9,4.81,0,7.83-1.37,9.72-3.62C358.16,329.79,359.22,325.73,359.22,323.28Zm-6.68,4.83a17.05,17.05,0,0,0,1.54-6.27c1.3,0,2.54.12,3.06.63a1,1,0,0,1,.28.81C357.42,326.12,355.81,327.71,352.54,328.11Z" fill="#f6d372"></path>
		<g mask="url(#home-mask-2)">
			<g id="steam">
				<path d="M335.21,318.77s-2.36-1.88-1.57-5.82,5.12-6.55,4.72-10.86-3.48-7.06-2.43-12.19,6.17-10.44,6.17-10.44h15.32s-6.84,7.88-7,11.82,2.74,7.88,2.16,12.22-7.09,6.7-7.09,11a6.42,6.42,0,0,0,2,4.22Z" fill="#efefef"></path>
				<path d="M347.5,318.77s2.36,1.88,1.57,5.82-5.12,6.55-4.72,10.86,3.48,7.06,2.43,12.19-6.17,10.44-6.17,10.44H325.29s6.84-7.88,7-11.82-2.74-7.88-2.16-12.22,7.09-6.7,7.09-11a6.42,6.42,0,0,0-2-4.22Z" fill="#efefef"></path>
				<path d="M318.42,397.39s-2.36-1.88-1.57-5.82,5.12-6.55,4.72-10.86-3.48-7.06-2.43-12.19,6.17-10.44,6.17-10.44h15.32s-6.84,7.88-7,11.82,2.74,7.88,2.16,12.22-7.09,6.7-7.09,11a6.42,6.42,0,0,0,2,4.22Z" fill="#efefef"></path>
			</g>
		</g>
	</g>
	<path d="M454.37,452.45s-3.17,8.17-2.64,10.56,2.64,10.43,2.64,10.43H461v-7.92l6.45,7.92h23.6s3.74-5.15-7.84-7.92a23.82,23.82,0,0,1-15.76-13.07Z" fill="#0c2344"></path>
	<path d="M394.56,452.45s-3.16,8.17-2.63,10.56,2.63,10.43,2.63,10.43h6.67v-7.92l6.45,7.92h23.6s3.74-5.15-7.84-7.92a23.82,23.82,0,0,1-15.76-13.07Z" fill="#0c2344"></path>
	<path d="M360.7,398.53h15.42v13.93a3.18,3.18,0,0,1-3.18,3.18h-9.06a3.18,3.18,0,0,1-3.18-3.18V398.53h0Z" fill="#19447c"></path>
	<g>
		<path d="M100.9,416.08s14.6-2.41,18.14-19.22,14.59-13.71,19-27.86-6.2-21.4-1.77-30.16.88-20.7-8.85-17.61-7.67,14.48-20.34,17.61-16.4,19.39-15,33.7c1.48,15.28-18,21.62-11.42,43.54Z" fill="#45c1c8"></path>
		<path d="M100.9,416.08s14.6-2.41,18.14-19.22,14.59-13.71,19-27.86-6.2-21.4-1.77-30.16c3.27-6.49,2.17-14.71-2.57-17.29C123,340,99.83,383.15,96.24,416.08Z" fill="#2fbfce"></path>
		<path d="M72,490.44H92a14.24,14.24,0,0,0,14.1-12.24l6-62.12H72Z" fill="#f6d372"></path>
		<path d="M85.25,416.08a28.82,28.82,0,0,0,16.25-12.75c6-10.22-2.32-21.82-8.13-34.36s-5.56-16.85,1-27,10.28-24.53,1.48-35.67.69-20-3.82-25.53-15.59-3.45-20,5.93V416.08Z" fill="#01a7df"></path>
		<path d="M72.5,323.7V453.08c0-43.37,0-102.39,17.28-137.45C84.49,313.13,76.18,315.89,72.5,323.7Z" fill="#45c1c8"></path>
		<path d="M43.28,416.08s-14.6-2.41-18.14-19.22S10.55,383.15,6.12,369s6.2-21.4,1.77-30.16-.88-20.7,8.85-17.61,7.67,14.48,20.34,17.61,16.4,19.39,15,33.7C50.6,387.82,70,394.16,63.5,416.08Z" fill="#45c1c8"></path>
		<path d="M43.28,416.08s-14.6-2.41-18.14-19.22S10.55,383.15,6.12,369s6.2-21.4,1.77-30.16c-3.27-6.49-2.17-14.71,2.57-17.29,10.72,18.49,33.89,61.6,37.48,94.53Z" fill="#2fbfce"></path>
		<path d="M58.93,416.08a28.82,28.82,0,0,1-16.25-12.75c-6-10.22,2.33-21.82,8.13-34.36s5.57-16.85-1-27-10.28-24.53-1.48-35.67-.69-20,3.82-25.53,15.64-3.45,20.06,5.93V416.08Z" fill="#01a7df"></path>
		<path d="M72.5,337.7V467.08c0-43.37,0-102.39-17.28-137.45C60.51,327.13,68.82,329.89,72.5,337.7Z" fill="#45c1c8"></path>
		<path d="M73.16,490.44h-20A14.24,14.24,0,0,1,39,478.2l-6-62.12H73.16Z" fill="#f6d372"></path>
	</g>
	<g>
		<ellipse cx="81.5" cy="132.19" rx="54" ry="8.88" fill="#3e76a1" opacity="0.46" style="isolation: isolate"></ellipse>
		<path d="M80.79,128.31h0c-5.94.59-19,19.27-19,21.17,0,.5,1.3,6.31,2.91,12.69a29.81,29.81,0,0,1-9.84,3.73c-4.52-7.31-9-16.07-8-20.47,2.18-9.24,19.42-28.11,19.42-28.11s5.16,1.75,14.52,1.5c9.37.25,14.51-1.5,14.51-1.5s17.25,18.87,19.44,28.11c1,4.4-3.5,13.16-8,20.47a29.29,29.29,0,0,1-9.84-3.73c1.61-6.38,2.9-12.19,2.9-12.69C99.75,147.58,86.72,128.9,80.79,128.31Z" fill="#d74775"></path>
		<path d="M93,106.61c4.09.53,7.07-.26,7.21-1,.41-2.35-4.21-13.29-4.21-13.29s-2.12-11.7-1.87-16.73a12.68,12.68,0,0,1,2.47,1.89c5.21,5.84,12.53,20.38,12.43,28.72s-5.37,9.25-10.42,8c-1.48-.38-3.09-.87-4.66-1.39h0c-5-1.64-9.68-3.68-9.68-3.68-4.16-.56-7.79.44-9.31-1.18a4.45,4.45,0,0,1-.41-.47c-2.78-3.35-2.27-7.37-.77-7.37a2.8,2.8,0,0,1,1.78.71h0a5.06,5.06,0,0,0,2.06,1.24c1,.24,3.81,1.21,4.6.14.34-.49.26-4.41,1.7-2.87l.19.24c.93,1.22,1.05,3.27,1.38,4.69A22.57,22.57,0,0,0,93,106.61Z" fill="#eed6b9"></path>
		<path d="M96.85,162.17a29.29,29.29,0,0,0,9.84,3.73c-4.08,6.61-8.17,12-8.17,12l1.26,6.89h0l-2.41-.19a27.63,27.63,0,0,1-4.69-8C93.89,173.35,95.48,167.55,96.85,162.17Z" fill="#eed6b9"></path>
		<path d="M99.86,185.25a30.84,30.84,0,0,1,.52,3.67c-.06.63-2,.3-4.23-2.6a40.83,40.83,0,0,1-4.22-7.84,17.33,17.33,0,0,0,.74-1.81,27.63,27.63,0,0,0,4.69,8l2.41.19h0Z" fill="#3a4d57"></path>
		<path d="M93.14,75l1,.61c-.25,5,1.87,16.73,1.87,16.73-.83,5.72-3.46,7-3,14.26a22.57,22.57,0,0,1-7.51-2.34c-.33-1.42-.45-3.47-1.38-4.69h0l.48-2.72h0V95.51H74.85v1.34h0a7.51,7.51,0,0,0-3.59,5.91,28.88,28.88,0,0,1-2.72,1.83c0-5.74-2.22-7-3-12.25,0,0,2.09-11.59,1.86-16.67h0c.56-.33,1.16-.67,1.75-1,.27-.15.54-.3.81-.42.41,2.67,1.4,8.46,2.54,9.39.82.67,3.66,1.09,8.25.85,4.58.24,7.44-.18,8.24-.85,1.15-1,2.17-6.93,2.57-9.53Z" fill="#3a4d57"></path>
		<path d="M80.77,84.5c-4.59.24-7.43-.18-8.25-.85-1.14-.93-2.13-6.72-2.54-9.39,1.27-.68,2.38-1.2,2.73-1.36a8.32,8.32,0,0,0,16.1-.24c.36.18,1.47.75,2.77,1.46-.4,2.6-1.42,8.58-2.57,9.53C88.21,84.32,85.35,84.74,80.77,84.5Z" fill="#debb95"></path>
		<path d="M88.81,72.66a8.32,8.32,0,0,1-16.1.24c-.12-.31-.77-1.58-.85-1.91,9.5-4.18,12.11-8.5,12.11-8.5a45.56,45.56,0,0,0,5.34,6.24v.67A10,10,0,0,1,88.81,72.66Z" fill="#eed6b9"></path>
		<path d="M84.59,96.86l-.48,2.72h0l-.19-.24c-1.44-1.54-1.36,2.38-1.7,2.87-.79,1.07-3.59.1-4.6-.14a5.06,5.06,0,0,1-2.06-1.24h0l-.7-4Z" fill="#a7a8ab"></path>
		<path d="M68.54,104.6a28.88,28.88,0,0,0,2.72-1.83,7.51,7.51,0,0,1,3.59-5.91l.7,4a2.8,2.8,0,0,0-1.78-.71c-1.5,0-2,4,.77,7.37a40.9,40.9,0,0,1-6.77,4.76,21.72,21.72,0,0,1-4.84,2c-5,1.27-10.33.35-10.42-8S59.74,83.35,65,77.51a11.33,11.33,0,0,1,2.47-1.83c.23,5.08-1.86,16.67-1.86,16.67S61,103.29,61.4,105.64C61.51,106.56,64,107.3,68.54,104.6Z" fill="#eed6b9"></path>
		<path d="M68.86,176.7a18.38,18.38,0,0,0,.74,1.78,40.83,40.83,0,0,1-4.22,7.84c-2.24,2.9-4.16,3.23-4.22,2.6a31.16,31.16,0,0,1,.51-3.67l.08-.43h0l2.42-.19A28.15,28.15,0,0,0,68.86,176.7Z" fill="#3a4d57"></path>
		<path d="M68.86,176.7a28.15,28.15,0,0,1-4.67,7.93l-2.42.19h0L63,177.93s-4.08-5.42-8.17-12a29.81,29.81,0,0,0,9.84-3.73C66.05,167.56,67.65,173.39,68.86,176.7Z" fill="#eed6b9"></path>
		<path d="M94.41,57.48a5.64,5.64,0,0,0-.53-1.3A6.74,6.74,0,0,0,91,53.64a7.66,7.66,0,0,0-4-1c-.35,0-1,.11-1.18.45.14-.25-.84-1-1-1.1a5.2,5.2,0,0,0-1.48-.61,6.94,6.94,0,0,0-4-.16,4.27,4.27,0,0,0-2.1,1.58c-.49.68-.77,1.24-1.66,1.44-1.12.24-2.22,0-3.21.66a5.39,5.39,0,0,0-1.77,2.89,6.84,6.84,0,0,1-2.67,2.87c-1.38,1-2.62,2.12-2.52,4,0,1.15,1,2,.84,3.26-.15,1.46-1.52,2.29-2.26,3.42a5.3,5.3,0,0,0-1,3.47,6.65,6.65,0,0,0,.7,2.19,1.65,1.65,0,0,0,2.17.86l.16-.08a19.88,19.88,0,0,0,4.17-2.46c1.26-.89,2.67-1.47,3.2-3a6.21,6.21,0,0,1,.46-1.4c.63-1,2.22-1,3.22-1.35a15.39,15.39,0,0,0,7.21-5.25,1.88,1.88,0,0,0,.27.66,12.53,12.53,0,0,0,3.56,3.51,3.1,3.1,0,0,1,.68.62A2.06,2.06,0,0,1,89,70.75a5.56,5.56,0,0,0-.23,2.35c.28,1.09,1.46,1.8,2.38,2.28a6.3,6.3,0,0,0,3.83,1,1.82,1.82,0,0,0,1.49-1.08,3.59,3.59,0,0,0,.07-2.3c-.2-.78-.64-1.36-.47-2.21s1-1.73,1.2-2.69a4.47,4.47,0,0,0-1-3.85c-.7-.92-1.58-1.5-1.72-2.74-.1-.91.11-1.82,0-2.74A6.6,6.6,0,0,0,94.41,57.48Z" fill="#ba8667"></path>
		<path d="M72.55,102.52a8.59,8.59,0,0,0,0,2.73A5.31,5.31,0,0,0,74,107.9c.19-.15.36-.3.51-.43A8.28,8.28,0,0,1,72.55,102.52Z" fill="#debb95"></path>
		<path d="M73.67,97.72a32.1,32.1,0,0,0-.84,3.15,1.09,1.09,0,0,1,.94-.77,2.8,2.8,0,0,1,1.78.71l-.7-4A6.77,6.77,0,0,0,73.67,97.72Z" fill="#debb95"></path>
		<path d="M94,113.1l1.25,4.22s-5.14,1.75-14.51,1.5c-9.36.25-14.52-1.5-14.52-1.5l1.25-4.22s.11-.38.27-.87a40.9,40.9,0,0,0,6.77-4.76,4.45,4.45,0,0,0,.41.47c1.52,1.62,5.15.62,9.31,1.18,0,0,4.7,2,9.68,3.68h0A1.55,1.55,0,0,1,94,113.1Z" fill="#3a4d57"></path>
		<rect x="74.85" y="95.51" width="9.74" height="1.34" fill="#d1d2d3"></rect>
	</g>
	<g>
		<polygon points="612.39 114.91 623.68 124.25 617.78 130.64 606.62 121.36 612.39 114.91" fill="#fff"></polygon>
		<path d="M617,130.17,616,138l-2,4.17a4.8,4.8,0,0,0,1.1,5.65l.74.67L631,128.39l-8.45-5.52Z" fill="#050404"></path>
		<polyline points="631.14 128.41 615.83 148.68 614.09 147.36 629.4 127.09 631.14 128.41" fill="#fff"></polyline>
		<path d="M593.87,73.67l-5.52,27.73a4.17,4.17,0,0,0,1.11,3.73l20.82,22.22,6.72-9.81-13.25-15.88,5.46-30.6Z" fill="#6363ac"></path>
		<polygon points="604.89 128.08 606.98 143.52 598.29 143.2 596.24 127.9 604.89 128.08" fill="#fff"></polygon>
		<path d="M598.18,142.35,592,146.66l-4.48,1.19a4.78,4.78,0,0,0-3.56,4.51v1l25.15-1.58-1.32-10Z" fill="#050404"></path>
		<polyline points="609.16 151.94 583.81 153.53 583.68 151.35 609.02 149.76 609.16 151.94" fill="#fff"></polyline>
		<path d="M620.18,72.81l-16.77.55-9.94,32a6.44,6.44,0,0,0-.2,3l4.13,28,12.19-.4-4.07-28.18Z" fill="#807cba"></path>
		<path d="M595.69,31.5l-14,29.5a5,5,0,0,0,2,6.41h0a4.13,4.13,0,0,0,5.48-1.28l15.72-23.9Z" fill="#005e99"></path>
		<polygon points="578.3 43.21 576.04 37.81 571.41 39.18 574.22 45.93 578.3 43.21" fill="#b94142"></polygon>
		<path d="M570.48,30.29c-2.19,1.65-1.61,6.12,0,8.16a4.42,4.42,0,0,0,6.61.24,5.4,5.4,0,0,0,.61-7.16C576.1,29.49,573.63,27.93,570.48,30.29Z" fill="#b94142"></path>
		<path d="M572,21.28h0c-1.23.83-3.76,2.71-3.51,3.22l6,11c.25.51,2.74-.06,4-.89h0c1.24-.84,2-1.94,1.81-2.45l-5.57-11.48C574.47,20.17,573.25,20.44,572,21.28Z"></path>
		<path d="M572.6,22.79h0c-1,.65-3,2.13-2.76,2.52l4.71,8.63c.19.4,2.15,0,3.12-.7h0c1-.65,1.61-1.52,1.42-1.92l-4.37-9C574.53,21.92,573.57,22.13,572.6,22.79Z" fill="#7f7f7f"></path>
		<polygon points="590.58 61.12 579.6 41.72 571.33 44.3 581.92 65.6 590.58 61.12" fill="#005e99"></polygon>
		<path d="M602.23,27.42l9.23-.33a8,8,0,0,1,8.21,7.51l1.75,38.17s-19.59,5.67-27.55.9l.72-38.5A7.9,7.9,0,0,1,602.23,27.42Z" fill="#0065ae"></path>
		<path d="M606.25,33.4l18.24,21.88c1.71,1.91,5.25,3.09,7.22,1.51h0c1.71-1.38,2.4-4.67,1.19-6.51L617.81,30Z" fill="#0065ae"></path>
		<polygon points="628.65 75.41 628.52 81.25 633.3 81.88 633.48 74.57 628.65 75.41" fill="#b94142"></polygon>
		<path d="M630.56,90.38c2.66-.61,3.94-4.94,3.26-7.47a4.42,4.42,0,0,0-5.94-2.9,5.4,5.4,0,0,0-3.47,6.29C625.09,88.84,626.72,91.27,630.56,90.38Z" fill="#b94142"></path>
		<polygon points="623.01 52.78 626.86 76.23 635.46 77.23 633.46 51.8 623.01 52.78" fill="#0065ae"></polygon>
		<path d="M601.89,15.41l5.85,10.51A4.38,4.38,0,0,1,606,31.87l-.1.05h0A4.38,4.38,0,0,1,600,30l0,0-4.44-8.48Z" fill="#b94142"></path>
		<path d="M597.37,25s2.93-2.34,3.16-4.56c0,0,.61,4.76-1.67,7.38Z" fill="#782121"></path>
		<path d="M589.56,11.6l.62,8.38c-.11,3.56,3.66,7.25,6.9,5.77h0a6.31,6.31,0,0,0,3.06-7.85L597,9.4C596.5,8.92,590.27,8,589.56,11.6Z" fill="#b94142"></path>
		<path d="M590.28,16l-1.46,3a.81.81,0,0,0,.31,1.08l1.11.35Z" fill="#b94142"></path>
		<path d="M601.2,15.51s-.67,5,3.42,4.82l2.18-4.7a8.79,8.79,0,0,0-.87-7C605,7,604.11,6.14,601.42,5.2c-6.38-2.23-9.65.87-9.56,3.61l5.37,5Z"></path>
		<path d="M598.83,15a2.58,2.58,0,1,0,2-2.07A2.58,2.58,0,0,0,598.83,15Z" fill="#b94142"></path>
		<path d="M597.07,15.82s-2.56,3.7-2.7,6.08c0,0-2.19.52-2.84-.78a1.28,1.28,0,0,0-1.29-.72h0a8.87,8.87,0,0,0,.7,5.06A3.76,3.76,0,0,0,596,27.12l.38-.22c2.75-1.77,5.76-3.7,3.55-9.63L598.76,14l-.9,1.29Z"></path>
		<path d="M596.75,3.31c7.37-1.07,9.68,3.78,10.38,7L589.19,11.6A8.31,8.31,0,0,1,596.75,3.31Z" fill="#807cba"></path>
		<path d="M607.13,10.35a10.76,10.76,0,0,1,.17,1.07l-25.56,1.91a.61.61,0,0,1-.66-.56.6.6,0,0,1,0-.06h0a.62.62,0,0,1,.57-.59Z" fill="#807cba"></path>
		<line x1="620.4" y1="50.37" x2="612.48" y2="40.65" fill="none" stroke="#005e99" stroke-miterlimit="10" stroke-width="0.75"></line>
	</g>
	<g id="chat-box-top">
		<g opacity="0.1">
			<path d="M555.09,104.14l11.49-.73a3.05,3.05,0,0,0,3.16-2.94h0L571,66a3,3,0,0,0-2.84-3.16H562.1l2.09-13-19,13H484.54a3,3,0,0,0-3,3.56l6.59,38.49a3,3,0,0,0,3.2,2.53l57.75-2.88" fill="gray"></path>
			<rect x="495.41" y="77.94" width="66.68" height="3.1" rx="1.3" ry="1.3" fill="gray"></rect>
			<rect x="495.41" y="86.94" width="45.48" height="3.1" rx="1.07" ry="1.07" fill="gray"></rect>
		</g>
		<path d="M545.08,100.54l-57.75,2.88a3,3,0,0,1-3.2-2.53L477.54,62.4a3,3,0,0,1,3-3.56h60.65l19-13-2.09,13h6.06A3,3,0,0,1,567,62l-1.26,34.47h0a3.05,3.05,0,0,1-3.16,2.94l-11.49.73Z" fill="#fbc680"></path>
		<rect x="491.41" y="73.94" width="66.68" height="3.1" rx="1.3" ry="1.3" fill="#fff"></rect>
		<rect x="491.41" y="82.94" width="45.48" height="3.1" rx="1.07" ry="1.07" fill="#fff"></rect>
	</g>
	<g id="chat-box-bottom">
		<g opacity="0.1">
			<path d="M507.36,202.7l-7.71.49a2,2,0,0,0-2.12,1.88s0,.08,0,.12l-.85,23.14a2,2,0,0,0,1.88,2.12h4.05l-1.4,8.76L514,230.42h40.7a2,2,0,0,0,2-2.39l-4.42-25.83a2,2,0,0,0-2.15-1.7l-38.75,1.94" fill="gray"></path>
			<rect x="502.65" y="212.16" width="44.75" height="2.08" rx="0.87" ry="0.87" fill="gray"></rect>
			<rect x="502.65" y="218.2" width="30.52" height="2.08" rx="0.72" ry="0.72" fill="gray"></rect>
		</g>
		<path d="M503.36,198.7l-7.71.49a2,2,0,0,0-2.12,1.88s0,.08,0,.12l-.85,23.14a2,2,0,0,0,1.88,2.12h4.05l-1.4,8.76L510,226.42h40.7a2,2,0,0,0,2-2.39l-4.42-25.83a2,2,0,0,0-2.15-1.7l-38.75,1.94Z" fill="#fbc680"></path>
		<rect x="498.65" y="208.16" width="44.75" height="2.08" rx="0.87" ry="0.87" fill="#fff"></rect>
		<rect x="498.65" y="214.2" width="30.52" height="2.08" rx="0.72" ry="0.72" fill="#fff"></rect>
	</g>
	<g opacity="0.25">
		<rect x="145.5" y="27.5" width="88" height="65.67" rx="2.82" ry="2.82" fill="#a5c5d2"></rect>
		<path d="M178.78,76.53h-8.46a1.12,1.12,0,0,1-1.13-1.11h0V46a1.12,1.12,0,0,1,1.13-1.1h8.46A1.11,1.11,0,0,1,179.91,46h0V75.4a1.12,1.12,0,0,1-1.11,1.13Z" fill="#a5c5d2"></path>
		<path d="M165.24,76.53h-8.46a1.12,1.12,0,0,1-1.13-1.11h0V46a1.12,1.12,0,0,1,1.13-1.1h8.46A1.11,1.11,0,0,1,166.37,46h0V75.4a1.12,1.12,0,0,1-1.11,1.13Z" fill="#a5c5d2"></path>
		<path d="M165.24,76.53h-8.46a1.12,1.12,0,0,1-1.13-1.11h0V58.78a1.12,1.12,0,0,1,1.13-1.11h8.46a1.12,1.12,0,0,1,1.13,1.11h0V75.42a1.12,1.12,0,0,1-1.13,1.11Z" fill="#a5c5d2" opacity="0.72" style="isolation: isolate"></path>
		<path d="M178.78,76.53h-8.46a1.12,1.12,0,0,1-1.13-1.11h0V68.21a1.12,1.12,0,0,1,1.13-1.11h8.46a1.12,1.12,0,0,1,1.13,1.11h0v7.21a1.12,1.12,0,0,1-1.13,1.11Z" fill="#a5c5d2" opacity="0.72" style="isolation: isolate"></path>
		<path d="M192.32,76.53h-8.46a1.12,1.12,0,0,1-1.13-1.11h0V46a1.12,1.12,0,0,1,1.13-1.1h8.46a1.12,1.12,0,0,1,1.13,1.1V75.4a1.12,1.12,0,0,1-1.11,1.13Z" fill="#a5c5d2"></path>
		<path d="M205.86,76.53H197.4a1.12,1.12,0,0,1-1.13-1.11h0V46a1.11,1.11,0,0,1,1.12-1.1h8.47A1.12,1.12,0,0,1,207,46h0V75.4a1.12,1.12,0,0,1-1.11,1.13Z" fill="#a5c5d2"></path>
		<path d="M219.4,76.53h-8.46a1.12,1.12,0,0,1-1.13-1.11h0V46a1.11,1.11,0,0,1,1.12-1.1h8.47a1.12,1.12,0,0,1,1.13,1.1V75.4a1.12,1.12,0,0,1-1.11,1.13Z" fill="#a5c5d2"></path>
		<path d="M192.32,76.53h-8.46a1.12,1.12,0,0,1-1.13-1.11h0V61.55a1.12,1.12,0,0,1,1.13-1.1h8.46a1.12,1.12,0,0,1,1.13,1.1V75.42a1.12,1.12,0,0,1-1.13,1.11Z" fill="#a5c5d2" opacity="0.72" style="isolation: isolate"></path>
		<path d="M205.86,76.53H197.4a1.12,1.12,0,0,1-1.13-1.11h0v-5a1.11,1.11,0,0,1,1.11-1.11h8.48a1.12,1.12,0,0,1,1.14,1.1v5a1.12,1.12,0,0,1-1.14,1.1Z" fill="#a5c5d2" opacity="0.72" style="isolation: isolate"></path>
		<path d="M219.4,76.53h-8.46a1.12,1.12,0,0,1-1.13-1.11h0V61.55a1.11,1.11,0,0,1,1.12-1.1h8.47a1.12,1.12,0,0,1,1.13,1.1V75.42a1.12,1.12,0,0,1-1.13,1.11Z" fill="#a5c5d2" opacity="0.72" style="isolation: isolate"></path>
		<rect x="155.65" y="80.97" width="64.87" height="1.66" fill="#a5c5d2"></rect>
		<rect x="155.65" y="84.29" width="34.97" height="1.66" fill="#a5c5d2"></rect>
		<rect x="155.65" y="37.15" width="13.54" height="1.66" fill="#a5c5d2"></rect>
	</g>
	<path d="M228.66,91.06H150.11a2.67,2.67,0,0,1-2.69-2.64V32.34a2.67,2.67,0,0,1,2.69-2.64h78.55a2.67,2.67,0,0,1,2.69,2.64V88.42A2.67,2.67,0,0,1,228.66,91.06Z" fill="#f8fdff"></path>
	<path d="M179.16,75.19h-8.07a1.06,1.06,0,0,1-1.09-1v-28A1.06,1.06,0,0,1,171,45h8.17a1.06,1.06,0,0,1,1.08,1v28a1.06,1.06,0,0,1-1,1.13Z" fill="#e2f3fc"></path>
	<path d="M166.25,75.19h-8.07a1.06,1.06,0,0,1-1.07-1h0v-28a1.06,1.06,0,0,1,1-1.13h8.15a1.06,1.06,0,0,1,1.08,1v28a1.06,1.06,0,0,1-1,1.13Z" fill="#e2f3fc"></path>
	<path d="M192.08,75.19H184a1.06,1.06,0,0,1-1.08-1v-28a1.06,1.06,0,0,1,1-1.13h8.16a1.06,1.06,0,0,1,1.07,1h0v28a1.06,1.06,0,0,1-1,1.13Z" fill="#e2f3fc"></path>
	<path d="M205,75.19h-8.07a1.06,1.06,0,0,1-1.08-1v-28a1.06,1.06,0,0,1,1-1.13H205a1.06,1.06,0,0,1,1.07,1h0v28a1.06,1.06,0,0,1-1,1.13Z" fill="#e2f3fc"></path>
	<path d="M217.9,75.19h-8.07a1.06,1.06,0,0,1-1.08-1v-28a1.06,1.06,0,0,1,1-1.13h8.16a1.06,1.06,0,0,1,1.1,1s0,.05,0,.08v28a1.06,1.06,0,0,1-1,1.09Z" fill="#e2f3fc"></path>
	<g id="graph-bars">
		<path id="bar-5" d="M166.25,75.19h-8.07a1.06,1.06,0,0,1-1.07-1h0V58.26a1.06,1.06,0,0,1,1.07-1h8.07a1.06,1.06,0,0,1,1.08,1V74.13a1.06,1.06,0,0,1-1.06,1.06Z" opacity="0.72" fill="url(#home-linear-gradient)" style="isolation: isolate; transform-origin: 162.22px 75.1901px;"></path>
		<path id="bar-4" d="M179.16,75.19h-8.07a1.06,1.06,0,0,1-1.09-1V67.25a1.06,1.06,0,0,1,1.07-1h8.07a1.06,1.06,0,0,1,1.08,1v6.88a1.06,1.06,0,0,1-1.06,1.06Z" opacity="0.72" fill="url(#home-linear-gradient-2)" style="isolation: isolate; transform-origin: 175.11px 75.1905px;"></path>
		<path id="bar-3" d="M192.08,75.19H184a1.06,1.06,0,0,1-1.08-1V60.91A1.06,1.06,0,0,1,184,59.85h8.09a1.06,1.06,0,0,1,1.07,1h0V74.13a1.06,1.06,0,0,1-1.06,1.06Z" opacity="0.72" fill="url(#home-linear-gradient-3)" style="isolation: isolate; transform-origin: 188.04px 75.1902px;"></path>
		<path id="bar-2" d="M205,75.19h-8.07a1.06,1.06,0,0,1-1.08-1V69.37a1.07,1.07,0,0,1,1.08-1.06H205a1.07,1.07,0,0,1,1.07,1.06v4.76A1.06,1.06,0,0,1,205,75.19Z" opacity="0.72" fill="url(#home-linear-gradient-4)" style="isolation: isolate; transform-origin: 200.96px 75.1902px;"></path>
		<path id="bar-1" d="M217.9,75.19h-8.07a1.06,1.06,0,0,1-1.08-1V60.91a1.06,1.06,0,0,1,1.06-1.06h8.09a1.06,1.06,0,0,1,1.1,1s0,0,0,0V74.13a1.06,1.06,0,0,1-1.06,1.06Z" opacity="0.72" fill="url(#home-linear-gradient-5)" style="isolation: isolate; transform-origin: 213.875px 75.1902px;"></path>
	</g>
	<rect x="157.11" y="79.42" width="61.87" height="1.59" fill="#f1f9fd"></rect>
	<rect x="157.11" y="82.59" width="33.36" height="1.59" fill="#f1f9fd"></rect>
	<rect x="157.11" y="37.64" width="12.91" height="1.59" fill="#f59790"></rect>
	<g id="doodles">
		<g id="doodle-9" style="animation: 1.82s ease-in-out -1s infinite alternate both running doodle-leftright;">
			<g style="animation: 1.22s ease-in-out -1s infinite alternate both running doodle-leftright;">
				<path d="M133.59,33.85c1.47,1.38,2.58,3.08,1.36,4.8-.92,1.28-2.34,1.09-3.73,1.53A4.85,4.85,0,0,0,128,43.59c-.87,3.24,1.87,7.84,5.35,7.16a1.19,1.19,0,0,0,.23-2.13c-1.09-.64-2.56-1.14-3-2.56-.63-2.14,1.31-3,2.79-3.41,1.67-.41,3.16-.86,4.09-2.48,1.56-2.73.25-7-3.06-7.76a.85.85,0,0,0-.79,1.44Z" fill="#3a3a3a" opacity="0.25"></path>
				<path d="M131.59,31.85c1.47,1.38,2.58,3.08,1.36,4.8-.92,1.28-2.34,1.09-3.73,1.53A4.85,4.85,0,0,0,126,41.59c-.87,3.24,1.87,7.84,5.35,7.16a1.19,1.19,0,0,0,.23-2.13c-1.09-.64-2.56-1.14-3-2.56-.63-2.14,1.31-3,2.79-3.41,1.67-.41,3.16-.86,4.09-2.48,1.56-2.73.25-7-3.06-7.76a.85.85,0,0,0-.79,1.44Z" fill="#7f2e83"></path>
			</g>
		</g>
		<g id="doodle-8" style="animation: 1.91s ease-in-out -1s infinite alternate both running doodle-updown;">
			<g style="animation: 1.08s ease-in-out -1s infinite alternate both running doodle-leftright;">
				<path d="M93.2,22.85c-.59-1.73-.76-3.56,1-4.41,1.28-.64,2.33.12,3.63.35a4.35,4.35,0,0,0,4-1.33c2.08-2.23,1.84-7.06-1.23-8a1.07,1.07,0,0,0-1.09,1.6c.6,1,1.57,2,1.3,3.32-.41,2-2.35,1.88-3.68,1.54-1.51-.39-2.9-.66-4.32.24-2.41,1.53-3.17,5.47-.86,7.51a.77.77,0,0,0,1.25-.82Z" fill="#3a3a3a" opacity="0.25"></path>
				<path d="M91.2,20.85c-.59-1.73-.76-3.56,1-4.41,1.28-.64,2.33.12,3.63.35a4.35,4.35,0,0,0,4-1.33c2.08-2.23,1.84-7.06-1.23-8a1.07,1.07,0,0,0-1.09,1.6c.6,1,1.57,2,1.3,3.32-.41,2-2.35,1.88-3.68,1.54-1.51-.39-2.9-.66-4.32.24-2.41,1.53-3.17,5.47-.86,7.51a.77.77,0,0,0,1.25-.82Z" fill="#f16f80"></path>
			</g>
		</g>
		<g id="doodle-7" style="animation: 1.75s ease-in-out -1s infinite alternate both running doodle-updown;">
			<g style="animation: 1.85s ease-in-out -1s infinite alternate both running doodle-updown;">
				<path d="M70.66,38.66A10.11,10.11,0,0,0,74,36.16L77.62,33c1-.9-.48-2.36-1.47-1.47l-3.38,3c-1,.91-2.34,1.8-2.91,3.06-.24.52.16,1.26.8,1Z" fill="#3a3a3a" opacity="0.25"></path>
				<path d="M68.66,36.66A10.11,10.11,0,0,0,72,34.16L75.62,31c1-.9-.48-2.36-1.47-1.47l-3.38,3c-1,.91-2.34,1.8-2.91,3.06-.24.52.16,1.26.8,1Z" fill="#f5937f"></path>
			</g>
		</g>
		<g id="doodle-6" style="animation: 1.3s ease-in-out -1s infinite alternate both running doodle-leftright;">
			<g style="animation: 1.11s ease-in-out -1s infinite alternate both running doodle-updown;">
				<path d="M113.55,24.15c-3,.43-5.08,3.18-3.91,6.24A5.26,5.26,0,0,0,117.07,33a5.33,5.33,0,0,0,1.53-7.38v0c-1.62-2.25-5.67-3.06-7.5-.67-.57.76.38,1.87,1.22,1.59,1.47-.49,2.85-1.13,4.22.09a3,3,0,0,1-.21,4.24l-.12.1a3.09,3.09,0,0,1-4.29-.84l-.1-.16c-.91-1.62.25-4.37,1.93-5.06a.36.36,0,0,0-.19-.69Z" fill="#3a3a3a" opacity="0.25"></path>
				<path d="M111.55,22.15c-3,.43-5.08,3.18-3.91,6.24A5.26,5.26,0,0,0,115.07,31a5.33,5.33,0,0,0,1.53-7.38v0c-1.62-2.25-5.67-3.06-7.5-.67-.57.76.38,1.87,1.22,1.59,1.47-.49,2.85-1.13,4.22.09a3,3,0,0,1-.21,4.24l-.12.1a3.09,3.09,0,0,1-4.29-.84l-.1-.16c-.91-1.62.25-4.37,1.93-5.06a.36.36,0,0,0-.19-.69Z" fill="#85a5d6"></path>
			</g>
		</g>
		<g id="doodle-5" style="animation: 1.26s ease-in-out -1s infinite alternate both running doodle-leftright;">
			<g style="animation: 1.62s ease-in-out -1s infinite alternate both running doodle-leftright;">
				<path d="M92,38.6a27.47,27.47,0,0,0,2.71-7.51c.17-1.18-1.47-2.18-2.11-.89A27.34,27.34,0,0,0,90.52,38c-.13.83,1,1.54,1.49.63Z" fill="#3a3a3a" opacity="0.25"></path>
				<path d="M90,36.6a27.47,27.47,0,0,0,2.71-7.51c.17-1.18-1.47-2.18-2.11-.89A27.34,27.34,0,0,0,88.52,36c-.13.83,1,1.54,1.49.63Z" fill="#7f2e83"></path>
			</g>
		</g>
		<g id="doodle-4" style="animation: 1.25s ease-in-out -1s infinite alternate both running doodle-updown;">
			<g style="animation: 1.35s ease-in-out -1s infinite alternate both running doodle-leftright;">
				<path d="M129.15,8.64c-1.14,2.25-3,5-3.21,7.55-.3,3.13,3,2.18,4.87,1.76s6-.57,5.46-3.35c-.22-1.24-1.5-2.19-2.31-3l-3.53-3.7c-1.19-1.23-3.11.68-1.88,1.88l2.73,2.67c.51.5,2.67,2.07,2.57,2.88.11-.28.23-.57.35-.85-.61.77-2.8.92-3.7,1.15-.61.15-1.26.25-1.85.46-1,.33-.49.14-.28-.67a54.82,54.82,0,0,0,1.49-6.48C129.92,8.55,129.37,8.21,129.15,8.64Z" fill="#3a3a3a" opacity="0.25"></path>
				<path d="M127.15,6.64c-1.14,2.25-3,5-3.21,7.55-.3,3.13,3,2.18,4.87,1.76s6-.57,5.46-3.35c-.22-1.24-1.5-2.19-2.31-3l-3.53-3.7c-1.19-1.23-3.11.68-1.88,1.88l2.73,2.67c.51.5,2.67,2.07,2.57,2.88.11-.28.23-.57.35-.85-.61.77-2.8.92-3.7,1.15-.61.15-1.26.25-1.85.46-1,.33-.49.14-.28-.67a54.82,54.82,0,0,0,1.49-6.48c.06-.39-.49-.73-.71-.3Z" fill="#fbc680"></path>
			</g>
		</g>
		<g id="doodle-3" style="animation: 1.17s ease-in-out -1s infinite alternate both running doodle-leftright;">
			<g style="animation: 1.72s ease-in-out -1s infinite alternate both running doodle-updown;">
				<path d="M443.53,236.17c-.61-1.79-.79-3.69,1-4.58,1.32-.66,2.41.13,3.76.37a4.55,4.55,0,0,0,4.2-1.38c2.15-2.31,1.91-7.32-1.28-8.29a1.11,1.11,0,0,0-1.13,1.66c.62,1,1.62,2.08,1.34,3.44-.42,2.05-2.42,2-3.81,1.6-1.57-.41-3-.69-4.48.25-2.5,1.57-3.28,5.66-.88,7.77a.79.79,0,0,0,1.29-.84Z" fill="#3a3a3a" opacity="0.25"></path>
				<path d="M441.53,234.17c-.61-1.79-.79-3.69,1-4.58,1.32-.66,2.41.13,3.76.37a4.55,4.55,0,0,0,4.2-1.38c2.15-2.31,1.91-7.32-1.28-8.29a1.11,1.11,0,0,0-1.13,1.66c.62,1,1.62,2.08,1.34,3.44-.42,2.05-2.42,2-3.81,1.6-1.57-.41-3-.69-4.48.25-2.5,1.57-3.28,5.66-.88,7.77a.79.79,0,0,0,1.29-.84Z" fill="#f16f80"></path>
			</g>
		</g>
		<g id="doodle-2" style="animation: 1.53s ease-in-out -1s infinite alternate both running doodle-updown;">
			<g style="animation: 1.19s ease-in-out -1s infinite alternate both running doodle-leftright;">
				<path d="M467.64,211.46c-3.12.45-5.27,3.3-4.06,6.47a5.46,5.46,0,0,0,7.71,2.68,5.54,5.54,0,0,0,1.57-7.67c-1.68-2.33-5.88-3.17-7.77-.69-.6.78.39,1.94,1.26,1.65,1.53-.51,3-1.17,4.38.09a3,3,0,0,1-.34,4.49,3.22,3.22,0,0,1-4.46-.9l-.1-.16c-.94-1.68.26-4.54,2-5.25a.37.37,0,0,0-.19-.71Z" fill="#3a3a3a" opacity="0.25"></path>
				<path d="M465.64,209.46c-3.12.45-5.27,3.3-4.06,6.47a5.46,5.46,0,0,0,7.71,2.68,5.54,5.54,0,0,0,1.57-7.67c-1.68-2.33-5.88-3.17-7.77-.69-.6.78.39,1.94,1.26,1.65,1.53-.51,3-1.17,4.38.09a3,3,0,0,1-.34,4.49,3.22,3.22,0,0,1-4.46-.9l-.1-.16c-.94-1.68.26-4.54,2-5.25a.37.37,0,0,0-.19-.71Z" fill="#85a5d6"></path>
			</g>
		</g>
		<g id="doodle-1" style="animation: 1.86s ease-in-out -1s infinite alternate both running doodle-leftright;">
			<g style="animation: 1.81s ease-in-out -1s infinite alternate both running doodle-leftright;">
				<path d="M437.21,201.34c-1.18,2.33-3.08,5.16-3.33,7.82-.3,3.25,3.12,2.26,5,1.83s6.19-.59,5.66-3.47c-.23-1.28-1.55-2.27-2.39-3.15l-3.67-3.8c-1.23-1.27-3.21.71-1.94,2l2.83,2.77c.53.51,2.77,2.15,2.66,3,.12-.3.24-.59.37-.89-.64.8-2.9,1-3.84,1.19-.63.16-1.3.27-1.92.48-1,.35-.5.15-.29-.69a55.27,55.27,0,0,0,1.55-6.71c.06-.42-.51-.77-.74-.32Z" fill="#3a3a3a" opacity="0.25"></path>
				<path d="M435.21,199.34c-1.18,2.33-3.08,5.16-3.33,7.82-.3,3.25,3.12,2.26,5,1.83s6.19-.59,5.66-3.47c-.23-1.28-1.55-2.27-2.39-3.15l-3.67-3.8c-1.23-1.27-3.21.71-1.94,2l2.83,2.77c.53.51,2.77,2.15,2.66,3,.12-.3.24-.59.37-.89-.64.8-2.9,1-3.84,1.19-.63.16-1.3.27-1.92.48-1,.35-.5.15-.29-.69a55.27,55.27,0,0,0,1.55-6.71c.06-.42-.51-.77-.74-.32Z" fill="#fbc680"></path>
			</g>
		</g>
	</g>
	<path d="M542.35,292.14c-3.42,3.77-2.6,8.38-2.62,13.8,0,0,3,1.24,4.37,1.15C548.36,304.44,544.06,297.32,542.35,292.14Z" fill="#98cf95"></path>
	<path d="M542.35,292.14c-2.59,5,1.3,11.13-.44,14.57-1.14-.34-2.18-.77-2.18-.77C539.72,300.36,538.93,295.91,542.35,292.14Z" fill="#b9ddb5"></path>
	<path d="M545.14,294.59c.71,4.88-5.54,12.09-4.87,17.73a17.21,17.21,0,0,0,3.88-2.71C549.52,303.1,548.66,297.45,545.14,294.59Z" fill="#71c06b"></path>
	<path d="M545.14,294.59c2.84,4.33-1.84,10.64-4.25,17.29l-.62.44a4.74,4.74,0,0,1,0-.53C540,306.23,545.83,299.32,545.14,294.59Z" fill="#a1d299"></path>
	<path d="M539.31,296c-.71,4.87,5.54,12.08,4.87,17.72A16.87,16.87,0,0,1,540.3,311C534.94,304.47,535.79,298.81,539.31,296Z" fill="#71c06b"></path>
	<path d="M539.31,296c-2.84,4.32,1.84,10.64,4.25,17.29l.62.43a4.54,4.54,0,0,0,0-.53C544.47,307.59,538.62,300.68,539.31,296Z" fill="#a1d299"></path>
	<path d="M534.08,301.64c-1.41,5.37,1.21,8.84,3.42,13.53a15,15,0,0,0,4.24-1.72C544.33,308.52,537.68,305,534.08,301.64Z" fill="#80c57c"></path>
	<path d="M534.08,301.64c-.16,6,5.71,8.8,5.62,12.84a23,23,0,0,1-2.2.69C535.19,310.36,532.67,307,534.08,301.64Z" fill="#b9ddb5"></path>
	<path d="M549.23,299.36c2.71,4.56,1.11,8.86.21,14.17a14.44,14.44,0,0,1-4.47,0C541.26,309.84,546.68,304,549.23,299.36Z" fill="#80c57c"></path>
	<path d="M549.23,299.36c1.67,5.59-3.17,10.55-2,14.35a15.72,15.72,0,0,0,2.26-.18C550.4,308.07,551.94,303.92,549.23,299.36Z" fill="#b9ddb5"></path>
	<path d="M553.74,305.53c-2.82,3.83-9.69,7.14-11.39,12.45,0,0,3.24.82,4.47,0C550.3,315.65,555.65,310.15,553.74,305.53Z" fill="#71c06b"></path>
	<path d="M531.27,305.53c1.35,4.67,9.69,7.14,11.39,12.45a14.45,14.45,0,0,1-4.47,0C530.9,315.58,529.36,310.15,531.27,305.53Z" fill="#71c06b"></path>
	<path d="M553.74,305.53c-2.2,5.2-5.89,8.13-10.68,12.44h-.71a4.68,4.68,0,0,1,.18-.48C544.56,312.51,550,309.83,553.74,305.53Z" fill="#a1d299"></path>
	<path d="M531.27,305.53c-.73,5.49,5.89,8.13,10.67,12.44h.71a1.54,1.54,0,0,0-.17-.48C540.44,312.51,532.57,310.06,531.27,305.53Z" fill="#a1d299"></path>
	<path d="M540.67,303.81c-2.71,4.56-1.11,8.85-.21,14.17a14.44,14.44,0,0,0,4.47,0C548.64,314.29,543.22,308.43,540.67,303.81Z" fill="#89c984"></path>
	<path d="M540.67,303.81c-1.67,5.59,3.17,10.55,2,14.35a21.43,21.43,0,0,1-2.26-.19C539.5,312.52,538,308.37,540.67,303.81Z" fill="#add7a7"></path>
	<path d="M538,316.57h8.67a8.45,8.45,0,0,1,0,16.9H538a8.45,8.45,0,0,1,0-16.9Z" fill="#d74775"></path>
	<path d="M546.66,316.57a8.45,8.45,0,0,1,0,16.9H538C550.73,334.9,556.68,328.42,546.66,316.57Z" fill="#a52e59"></path>
	<path d="M535.54,316.57c-3.72,0-2,1-3.59,2.53a35.58,35.58,0,0,0,6,.45h8.67a35.41,35.41,0,0,0,6-.45c-1.53-1.56.14-2.53-3.58-2.53Z" fill="#764e4e"></path>
	<path d="M530.29,320.94a.42.42,0,0,0,0,.83h24.08a.42.42,0,0,0,0-.83Zm-.57,3a.43.43,0,0,0,0,.85h25.22a.43.43,0,0,0,0-.85Zm.14,3a.42.42,0,0,0,0,.84H554.8a.42.42,0,0,0,0-.84Zm1.35,3.06a.4.4,0,0,0,0,.8h22.24a.4.4,0,0,0,0-.8Z" fill="#544141"></path>
	<g>
		<ellipse cx="144" cy="484.5" rx="37.5" ry="7" fill="#7c3b11" opacity="0.16" style="isolation: isolate"></ellipse>
		<path d="M128.26,469.45c.5,3.3,1.29,8,2.14,11.41.62,2.53,1.29,4.36,1.9,4.39,2,.1,10.39.65,5.87-1.9a4.83,4.83,0,0,1-1.71-2.82,44,44,0,0,1-1.39-9.76A60.64,60.64,0,0,1,128.26,469.45Z" fill="#5e4030"></path>
		<path d="M158.29,423.89c-2,0-3.41,5.42-3.74,6.89,1.75-.23,4.25-.52,7.13-.77C161.3,428.23,160.17,423.89,158.29,423.89Z" fill="#714f3d"></path>
		<path d="M148.07,441.69a6.66,6.66,0,0,1-.14,1.28c-.12.36,14.6,10.26,19.68,11.29,3.56.71,3.78,0,3.77,0a1.45,1.45,0,0,1,0-.39L172,452h.17a12.86,12.86,0,0,1,.11-3.91c2-3.15,11.33-1.89,16.06-5.56-1.78-.29-3.63-.7-4.74-2.24-.33-.46.43-.9.76-.45a4.5,4.5,0,0,0,2.77,1.57v-.1a6.82,6.82,0,0,0,.66-3.32c-1.4-.35-4.78-3.37-3.69-3.83a16.92,16.92,0,0,1,5-1.46c-4.9-3.86-18.17-3.52-27.47-2.71-2.88.25-5.38.54-7.13.77s-2.63.37-2.63.37-2.65-9.81-6.27-8.14c-2.92,1.34.46,12.08,1.25,18.57A4.08,4.08,0,0,1,148.07,441.69Zm14.78-6.94a1.22,1.22,0,1,1-1.21,1.23s0,0,0,0A1.21,1.21,0,0,1,162.85,434.75Z" fill="#936957"></path>
		<path id="dog-tail" d="M124.09,447.65a14.88,14.88,0,0,0-2.21-2.65,20.39,20.39,0,0,0-4.12-3.14c-.79.73-.72,3-.32,6s1.08,6.19,1.62,9.31C119.94,459.88,129.74,456,124.09,447.65Z" fill="#936957"></path>
		<path d="M119.06,457.17c.57,3.35,1,6.4.61,8.13-.58,2.85-.26,8.76.29,13.51.13,1.11.27,2.16.41,3.09a13.49,13.49,0,0,0,.92,3.86c.9.93,10.33,1.15,6.78-1.58a5.78,5.78,0,0,1-1.89-3c-1.44-4.77.57-12.16.57-12.16s.54.18,1.51.43a60.64,60.64,0,0,0,6.81,1.32c5.43.74,12.73,1,19.4-1.25-.14,1.78-.43,6.79-.28,10.76.11,2.9.45,5.25,1.26,5.38,1.91.29,7.29.91,5.48-.75-.85-.77-1.09-2.49-1-4.51a54.58,54.58,0,0,1,1.93-10.79s1.6,6.26,2.8,11c.49,1.93.91,3.6,1.12,4.48.74,3,9.61,1.08,6.27-.54-.7-.34-1.14-1.67-1.36-3.58a36.3,36.3,0,0,1-.19-4.88,89.58,89.58,0,0,1,1.79-15.62,18.23,18.23,0,0,0,.12-3.63,3.53,3.53,0,0,1-1.65.38,23,23,0,0,1-3.86-.41c-4.64-.94-16-8.09-20-11.31-.55,1.48-3.35,2.2-6.81,2.5-.63.06-1.29.1-2,.13a107.16,107.16,0,0,1-13.61-.48h-.39C119.5,447.06,117.43,449.46,119.06,457.17Z" fill="#936957"></path>
		<path d="M166.87,456.79a23,23,0,0,0,3.86.41,3.53,3.53,0,0,0,1.65-.38,4.54,4.54,0,0,0,1.14-.86,2.33,2.33,0,0,0,.31-2.17,2.57,2.57,0,0,0-1.68-1.77H172l-.62,1.85a1.45,1.45,0,0,0,0,.39s-.21.74-3.77,0c-5.08-1-19.45-11-19.68-11.29l-1-1.39h0a1.7,1.7,0,0,0-1.16.51,2.41,2.41,0,0,0-.32,2,6,6,0,0,0,1.44,1.39C150.89,448.7,162.23,455.85,166.87,456.79Z" fill="#dd3826"></path>
		<path d="M162.85,437.18a1.22,1.22,0,1,0-1.21-1.23h0a1.21,1.21,0,0,0,1.2,1.22Z" fill="#2c130b"></path>
		<path d="M187.8,438a6.82,6.82,0,0,1-.66,3.32v.1a4.5,4.5,0,0,1-2.77-1.57c-.33-.45-1.09,0-.76.45,1.11,1.54,3,2,4.74,2.24h0a.47.47,0,0,0,.55-.47.35.35,0,0,0-.31-.38l-.58-.1h0a7.4,7.4,0,0,0,.67-3.79,12.67,12.67,0,0,0,2.31-2.26c.89-1.09,1.59-2.21,1.46-2.65s-1.59-.41-3.28-.15a16.92,16.92,0,0,0-5,1.46C183,434.64,186.4,437.66,187.8,438Z" fill="#2c130b"></path>
		<circle cx="171.66" cy="461.89" r="4.16" fill="#fcba3d"></circle>
		<path d="M170.33,460.5a.7.7,0,0,0-.58.24,1,1,0,0,0-.21.66v.66a2.34,2.34,0,0,0,0,.38.86.86,0,0,0,.16.35.43.43,0,0,0,.26.17.92.92,0,0,0,.29,0h1.19v.66h-1.18a3.1,3.1,0,0,1-.54,0,1.14,1.14,0,0,1-.5-.28,1.44,1.44,0,0,1-.39-.64,3.18,3.18,0,0,1-.12-.77v-.15h0v-.12a2.24,2.24,0,0,1,.43-1.34,1.44,1.44,0,0,1,1.13-.42h1.16v.67Z" fill="#ffeacb"></path>
		<path d="M173,460.49a.61.61,0,0,1,.64.38,2.65,2.65,0,0,1,.17.88v.16a.38.38,0,0,1,0,.1v.1a1.51,1.51,0,0,1-.06.36.86.86,0,0,1-.15.32.43.43,0,0,1-.25.18,1.55,1.55,0,0,1-.31,0h-1.18v.67H173a2.42,2.42,0,0,0,.54-.06,1.09,1.09,0,0,0,.49-.27,1.37,1.37,0,0,0,.39-.64,2.54,2.54,0,0,0,.12-.78v-.31a2.21,2.21,0,0,0-.43-1.34,1.45,1.45,0,0,0-1.13-.43h-1.16v.65Z" fill="#ffeacb"></path>
		<path d="M171.61,462.19a.39.39,0,0,0,.47-.3v0a.41.41,0,0,0-.3-.5h0a.39.39,0,0,0-.46.3v0A.42.42,0,0,0,171.61,462.19Z" fill="#ffeacb"></path>
		<path d="M170,461.76l1.2-.22v.08a.57.57,0,0,0,0,.26V462Z" fill="#ffeacb"></path>
		<g style="isolation: isolate">
			<path d="M156,490l1.24,1.23-.61,2.76,4.43-3.44.9,1.86-3.87,2.91,3.45.72.55,1.81-6-1.46-.81,3.37L154,498.45Z" fill="#7c3b11"/>
			<path d="M164.16,495.85l0,.11a.89.89,0,0,0,.09.26,1.53,1.53,0,0,0,.2.3,1,1,0,0,0,.37.25,1.23,1.23,0,0,0,.54.09,4.7,4.7,0,0,0,1.07-.17,6.24,6.24,0,0,0,.88-.29,5.66,5.66,0,0,0,.53-.26s.06,0,.1,0a1.24,1.24,0,0,1,.13.21l.14.28.13.29.09.22a.35.35,0,0,1,0,.08l0,0-.09.1-.17.14-.27.17-.35.17a6.43,6.43,0,0,1-1,.33,6.53,6.53,0,0,1-1.22.1,2.65,2.65,0,0,1-2.51-1.91,2.61,2.61,0,0,1,.07-1.85,5.46,5.46,0,0,1,1-1.78,4.61,4.61,0,0,1,1.28-1,3.13,3.13,0,0,1,1.59-.41,1.31,1.31,0,0,1,.55.13,1.91,1.91,0,0,1,.48.31,2.68,2.68,0,0,1,.38.42,2.36,2.36,0,0,1,.26.47,1.81,1.81,0,0,1,.12.43.67.67,0,0,1,0,.33,1.37,1.37,0,0,1-.29.37,6.34,6.34,0,0,1-.57.49,7.39,7.39,0,0,1-.76.52,9.17,9.17,0,0,1-1.52.66A5.26,5.26,0,0,1,164.16,495.85Zm.1-1.39a3,3,0,0,0,.54-.09l.36-.11.35-.15.28-.13a9.34,9.34,0,0,0,1-.51c.31-.18.44-.33.39-.45q-.21-.5-1.66.27a3.52,3.52,0,0,0-.7.45,1.81,1.81,0,0,0-.33.34Z" fill="#7c3b11"/>
			<path d="M169.13,493.6a21.86,21.86,0,0,0,0-2.63s.25.06.63.25a8.72,8.72,0,0,1,.85.48,6.09,6.09,0,0,1,.1,1.79,6.1,6.1,0,0,0,0,1.51q.22.63,1.13-1.11.24-.46.77-1.55.7-1.45,1-1.94a1.77,1.77,0,0,1,.83.24,3.47,3.47,0,0,1,.81.53,12.52,12.52,0,0,1-.6,1.44q-.42.88-1,1.86a15.25,15.25,0,0,1-1.28,1.88,6.29,6.29,0,0,1-1.36,1.33,1.84,1.84,0,0,1-.54-.21,3.64,3.64,0,0,1-.45-.28c-.1-.08-.26-.22-.49-.44l-.38-.36A11.58,11.58,0,0,1,169.13,493.6Z" fill="#7c3b11"/>
			<path d="M176.52,493a26.29,26.29,0,0,1,.58-3,.34.34,0,0,1,.17-.14.33.33,0,0,1,.21,0,1,1,0,0,1,.22.11,1.49,1.49,0,0,1,.22.18l.21.21.2.22.16.17a10,10,0,0,0-.42,1.91q-.16,1.17-.29,2.34a12.8,12.8,0,0,1-.3,1.79,1.62,1.62,0,0,1-1.32-.87A16.62,16.62,0,0,1,176.52,493Zm1.73-3.6a2.33,2.33,0,0,1-.64-.29c-.2-.13-.29-.24-.27-.34s0-.27,0-.63a3.39,3.39,0,0,1,.14-.85c.07-.21.19-.32.36-.32a1.4,1.4,0,0,1,.41.13,2.21,2.21,0,0,1,.51.32.74.74,0,0,1,.28.38,1.91,1.91,0,0,0-.05.37c0,.16,0,.31,0,.44a2,2,0,0,1-.08.42,1,1,0,0,1-.19.36A.58.58,0,0,1,178.26,489.39Z" fill="#7c3b11"/>
			<path d="M184.42,493.37,185,492q.24-.58.18-.73t-.49-.26a.88.88,0,0,0-.59.09,4.32,4.32,0,0,0-1.21,1.12,6.27,6.27,0,0,0-.8,1.34q-.27.64-.6,1.5t-.54,1.27a4.6,4.6,0,0,1-.84-.51,5.47,5.47,0,0,0-.77-.5q.31-.68.6-1.48t.47-1.44l.4-1.4c.15-.51.27-.92.38-1.22a1.43,1.43,0,0,1,.42.12,3.33,3.33,0,0,1,.45.24.93.93,0,0,1,.31.28,15.51,15.51,0,0,1,2.29-1.43,1.81,1.81,0,0,1,.85,0,1.25,1.25,0,0,1,.77.36q1,1,.45,3.32a18.18,18.18,0,0,1-1,2.94,1.3,1.3,0,0,1-.72-.16,2.45,2.45,0,0,1-.69-.46q-.27-.27-.24-.42A6.86,6.86,0,0,1,184.42,493.37Z" fill="#7c3b11"/>
		</g>
	</g>
</svg>
